<svg width="30" height="30" viewBox="0 0 30 30" fill="none" xmlns="http://www.w3.org/2000/svg">
<path d="M27 0H9C7.35 0 6 1.35 6 3V21C6 22.65 7.35 24 9 24H27C28.65 24 30 22.65 30 21V3C30 1.35 28.65 0 27 0ZM24 7.5H19.5V15.75C19.5 16.7446 19.1049 17.6984 18.4017 18.4017C17.6984 19.1049 16.7446 19.5 15.75 19.5C14.7554 19.5 13.8016 19.1049 13.0983 18.4017C12.3951 17.6984 12 16.7446 12 15.75C12 14.7554 12.3951 13.8016 13.0983 13.0983C13.8016 12.3951 14.7554 12 15.75 12C16.605 12 17.37 12.285 18 12.765V4.5H24V7.5ZM3 6H0V27C0 28.65 1.35 30 3 30H24V27H3V6Z" fill="url(#paint0_linear_342_4)"/>
<defs>
<linearGradient id="paint0_linear_342_4" x1="7" y1="2.5" x2="18.5" y2="30" gradientUnits="userSpaceOnUse">
<stop stop-color="#B647B9"/>
<stop offset="1" stop-color="#3DB4CF"/>
</linearGradient>
</defs>
</svg>
