<svg width="851" height="525" viewBox="0 0 851 525" fill="none" xmlns="http://www.w3.org/2000/svg">
<path d="M769.395 161.207C769.761 160.84 770.368 160.84 770.733 161.207C771.1 161.584 771.1 162.18 770.733 162.547L767.723 165.557C767.357 165.924 766.751 165.924 766.384 165.557C766.016 165.191 766.016 164.596 766.384 164.219L769.395 161.207ZM772.852 167.665C773.379 167.665 773.8 168.088 773.8 168.603C773.8 169.131 773.379 169.553 772.852 169.553H768.592C768.079 169.553 767.655 169.131 767.655 168.603C767.655 168.088 768.079 167.665 768.592 167.665H772.852ZM770.733 174.671C771.1 175.037 771.1 175.633 770.733 175.999C770.368 176.376 769.761 176.376 769.395 175.999L766.384 173C766.016 172.621 766.016 172.027 766.384 171.66C766.751 171.283 767.357 171.283 767.723 171.66L770.733 174.671ZM764.288 178.117C764.288 178.644 763.865 179.068 763.337 179.068C762.811 179.068 762.389 178.644 762.389 178.117V173.871C762.389 173.343 762.811 172.92 763.337 172.92C763.865 172.92 764.288 173.343 764.288 173.871V178.117ZM757.283 175.999C756.915 176.376 756.308 176.376 755.944 175.999C755.573 175.633 755.573 175.037 755.944 174.671L758.955 171.66C759.319 171.283 759.912 171.283 760.293 171.66C760.66 172.027 760.66 172.621 760.293 173L757.283 175.999ZM753.824 169.553C753.295 169.553 752.873 169.131 752.873 168.603C752.873 168.088 753.295 167.665 753.824 167.665H758.081C758.597 167.665 759.021 168.088 759.021 168.603C759.021 169.131 758.597 169.553 758.081 169.553H753.824ZM755.944 162.547C755.573 162.18 755.573 161.584 755.944 161.207C756.308 160.84 756.915 160.84 757.283 161.207L760.293 164.219C760.66 164.596 760.66 165.191 760.293 165.557C759.912 165.924 759.319 165.924 758.955 165.557L755.944 162.547ZM762.389 159.089C762.389 158.573 762.811 158.149 763.337 158.149C763.865 158.149 764.288 158.573 764.288 159.089V163.348C764.288 163.875 763.865 164.297 763.337 164.297C762.811 164.297 762.389 163.875 762.389 163.348V159.089Z" fill="#7E6ABC"/>
<path fill-rule="evenodd" clip-rule="evenodd" d="M151.209 -2.5147e-05C93.1613 -2.5147e-05 45.6807 47.492 45.6807 105.54C45.6807 163.577 93.1613 211.069 151.209 211.069C162.865 211.069 172.392 220.607 172.392 232.249C172.392 243.905 162.865 253.429 151.209 253.429H95.9893C67.676 253.429 44.5015 276.592 44.5015 304.92C44.5015 333.232 67.676 356.395 95.9893 356.395C120.48 356.395 140.516 376.433 140.516 400.923C140.516 445.608 177.073 482.168 221.749 482.168H246.045H603.827H698.66C756.696 482.168 804.191 434.676 804.191 376.625C804.191 318.589 756.696 271.097 698.66 271.097H624.237C612.597 271.097 603.059 261.561 603.059 249.917C603.059 238.26 612.597 228.735 624.237 228.735H643.144C671.457 228.735 694.628 205.572 694.628 177.247C694.628 148.968 671.515 125.816 643.233 125.771C643.212 125.771 637.797 125.771 637.775 125.771C613.283 125.771 593.245 105.736 593.245 81.2453C593.245 36.5586 556.688 -2.5147e-05 512.001 -2.5147e-05C432.715 -2.5147e-05 230.496 -2.5147e-05 151.209 -2.5147e-05" fill="#D6D0EC"/>
<path fill-rule="evenodd" clip-rule="evenodd" d="M763.337 230.075C791.504 230.075 814.345 207.244 814.345 179.068C814.345 150.903 791.504 128.061 763.337 128.061C735.173 128.061 712.332 150.903 712.332 179.068C712.332 207.244 735.173 230.075 763.337 230.075Z" fill="#D6D0EC"/>
<path fill-rule="evenodd" clip-rule="evenodd" d="M170.869 57.5226H220.284V72.4973H170.869V57.5226Z" fill="#C1B6E1"/>
<path fill-rule="evenodd" clip-rule="evenodd" d="M97.4773 75.4974H146.904V90.4734H97.4773V75.4974Z" fill="#C1B6E1"/>
<path fill-rule="evenodd" clip-rule="evenodd" d="M149.252 75.4974H198.668V90.4734H149.252V75.4974" fill="#C1B6E1"/>
<path fill-rule="evenodd" clip-rule="evenodd" d="M119.095 93.4612H168.509V108.437H119.095V93.4612" fill="#C1B6E1"/>
<path fill-rule="evenodd" clip-rule="evenodd" d="M97.4773 111.436H146.904V126.413H97.4773V111.436Z" fill="#C1B6E1"/>
<path fill-rule="evenodd" clip-rule="evenodd" d="M149.252 111.436H198.668V126.413H149.252V111.436" fill="#C1B6E1"/>
<path fill-rule="evenodd" clip-rule="evenodd" d="M202.915 386.185H252.343V401.152H202.915V386.185Z" fill="#C1B6E1"/>
<path fill-rule="evenodd" clip-rule="evenodd" d="M254.689 386.185H304.116V401.152H254.689V386.185Z" fill="#C1B6E1"/>
<path fill-rule="evenodd" clip-rule="evenodd" d="M181.311 404.152H230.725V419.125H181.311V404.152" fill="#C1B6E1"/>
<path fill-rule="evenodd" clip-rule="evenodd" d="M233.084 404.152H282.499V419.125H233.084V404.152Z" fill="#C1B6E1"/>
<path fill-rule="evenodd" clip-rule="evenodd" d="M254.689 422.125H304.116V437.103H254.689V422.125Z" fill="#C1B6E1"/>
<path fill-rule="evenodd" clip-rule="evenodd" d="M181.311 440.089H230.725V455.065H181.311V440.089" fill="#C1B6E1"/>
<path fill-rule="evenodd" clip-rule="evenodd" d="M233.084 440.089H282.499V455.065H233.084V440.089Z" fill="#C1B6E1"/>
<path fill-rule="evenodd" clip-rule="evenodd" d="M286.885 45.4654H504.423C509.975 45.4654 514.509 50.0108 514.509 55.5521V365.843H522.248C525.969 365.843 529.016 368.899 529.016 372.621V400.327C529.016 404.048 525.969 407.095 522.248 407.095H269.057C265.337 407.095 262.292 404.048 262.292 400.327V372.621C262.292 368.899 265.337 365.843 269.057 365.843H276.797V55.5521C276.797 50.0108 281.343 45.4654 286.885 45.4654Z" fill="#C1B6E1"/>
<path fill-rule="evenodd" clip-rule="evenodd" d="M281.343 43.1293H498.881C504.433 43.1293 508.967 47.664 508.967 53.2053V368.303C508.967 373.844 504.433 378.379 498.881 378.379H281.343C275.791 378.379 271.256 373.844 271.256 368.303V53.2053C271.256 47.664 275.791 43.1293 281.343 43.1293" fill="#F7F8FC"/>
<path fill-rule="evenodd" clip-rule="evenodd" d="M289.691 218.455V349.939H490.535V218.455H289.691Z" fill="#5D4698"/>
<path fill-rule="evenodd" clip-rule="evenodd" d="M289.691 61.5519V221.865H490.535V61.5519H289.691Z" fill="#EAE6F5"/>
<path fill-rule="evenodd" clip-rule="evenodd" d="M470.728 131.805V81.3586H400.015V131.805H470.728ZM400.015 202.059H470.728V151.612H400.015V202.059ZM309.497 151.612V202.059H380.208V151.612H309.497ZM309.497 81.3586V131.805H380.208V81.3586H309.497Z" fill="#6A54A5"/>
<path fill-rule="evenodd" clip-rule="evenodd" d="M430.483 151.612L400.015 182.079V151.612H430.483ZM342.059 193.655H327.816L369.857 151.612H380.208V155.505L342.059 193.655ZM380.208 193.655H355.557L380.208 169.004V193.655ZM431.707 89.7626H445.952L403.908 131.805H400.015V121.455L431.707 89.7626ZM462.712 119.383L450.291 131.805H417.407L459.449 89.7626H462.712V119.383Z" fill="#C1B6E1"/>
<path fill-rule="evenodd" clip-rule="evenodd" d="M263.516 363.507H516.709C520.428 363.507 523.472 366.551 523.472 370.272V397.98C523.472 401.701 520.428 404.759 516.709 404.759H263.516C259.795 404.759 256.749 401.701 256.749 397.98V370.272C256.749 366.551 259.795 363.507 263.516 363.507Z" fill="#E3DEF2"/>
<path fill-rule="evenodd" clip-rule="evenodd" d="M397.027 235.067L394.405 235.341L392.791 235.285L391.177 235.215L388.589 234.735L373.796 219.599L339.792 234.575C340.833 288.019 335.247 313.095 328.685 349.939H431.993C432.131 334.068 438.532 310.564 439.871 297.811L445.688 238.741L412.964 221.133L397.027 235.067Z" fill="#3D3172"/>
<path fill-rule="evenodd" clip-rule="evenodd" d="M403.279 349.939H421.929C425.971 346.595 429.909 343.641 432.428 342.472C433.907 327.371 438.725 308.685 439.871 297.811L440.032 296.136C439.619 292.061 439.16 287.665 438.655 282.925C436.78 265.397 440.855 253.719 444.897 246.768L445.688 238.741L412.964 221.133L407.812 225.644L406.037 234.093C406.037 234.093 423.727 247.741 425.869 255.205C427.999 262.671 420.533 314.045 415.209 336.22C413.904 341.649 409.369 346.183 403.279 349.939" fill="#2C2757"/>
<path fill-rule="evenodd" clip-rule="evenodd" d="M339.825 236.727C340.365 269.564 338.361 291.592 335.179 312.521C335.179 312.521 352.535 247.603 350.612 245.828C349.111 244.443 347.235 242.887 339.825 236.727Z" fill="#2C2757"/>
<path fill-rule="evenodd" clip-rule="evenodd" d="M411.487 217.343C399.592 211.631 387.879 211.172 375.571 215.924L377.449 221.601L409.175 222.851L411.487 217.343" fill="#B1AAC3"/>
<path fill-rule="evenodd" clip-rule="evenodd" d="M397.027 235.067L394.405 235.341L391.177 235.215L388.589 234.735L378.651 224.567L377.095 224.98L373.613 229.205C373.613 229.205 380.46 246.94 380.873 247.547C381.295 248.153 382.063 248.484 383.253 247.157C384.432 245.817 388.165 241.467 388.165 241.467C388.165 241.467 389.241 240.425 389.677 241.673C390.112 242.908 395.561 239.761 395.561 239.761L395.895 240.952C395.895 240.952 396.741 240.001 397.496 241.307C398.241 242.612 401.963 248.256 402.225 248.508C402.488 248.771 403.656 249.631 404.561 247.948C405.375 246.401 415.128 226.663 416.823 223.217L412.964 221.133L397.027 235.067Z" fill="#2C2757"/>
<path fill-rule="evenodd" clip-rule="evenodd" d="M397.027 235.067L394.405 235.341L391.177 235.215L388.589 234.735L387.604 233.728L385.28 237.391C385.28 237.391 390.067 239.153 389.895 243.401L380.552 349.939H385.704L395.047 243.608C395.413 239.372 400.119 237.975 400.119 237.975L398.092 234.139L397.027 235.067" fill="#2C2757"/>
<path fill-rule="evenodd" clip-rule="evenodd" d="M394.532 191.159C402.02 191.456 407.916 197.833 407.618 205.32L406.908 223.343C406.61 230.831 400.244 236.716 392.745 236.429C385.257 236.132 379.372 229.755 379.658 222.267L380.369 204.245C380.666 196.759 387.042 190.86 394.532 191.159" fill="#E85355"/>
<path fill-rule="evenodd" clip-rule="evenodd" d="M389.688 233.52L391.257 233.327C391.257 233.327 391.555 233.669 391.577 234.232C391.6 234.791 391.567 236.452 391.567 236.452C390.983 236.635 387.903 237.14 388.016 236.704C388.04 236.6 389.688 233.52 389.688 233.52Z" fill="#2C2757"/>
<path fill-rule="evenodd" clip-rule="evenodd" d="M396.03 233.772L394.485 233.453C394.485 233.453 394.164 233.772 394.096 234.335C394.028 234.895 393.924 236.544 393.924 236.544C394.485 237.012 397.532 237.517 397.45 237.081C397.428 236.979 396.03 233.772 396.03 233.772" fill="#2C2757"/>
<path fill-rule="evenodd" clip-rule="evenodd" d="M411.487 217.343C411.66 217.503 413.457 220.96 414.396 222.632C414.396 222.632 415.255 224.007 414.499 226.228C413.744 228.46 404.252 246.584 404.252 246.584C404.252 246.584 403.588 247.547 402.627 246.549C401.653 245.555 394.485 233.453 394.485 233.453L409.565 218.751C410.275 217.917 411.328 217.183 411.487 217.343Z" fill="white"/>
<path fill-rule="evenodd" clip-rule="evenodd" d="M375.571 215.924C375.445 215.98 373.316 219.381 372.251 220.972C372.251 220.972 371.289 222.279 371.873 224.556C372.457 226.835 380.483 245.657 380.483 245.657C380.483 245.657 381.068 246.653 382.108 245.737C383.151 244.82 391.257 233.327 391.257 233.327L377.38 217.48C376.453 216.301 375.685 215.867 375.571 215.924" fill="white"/>
<path fill-rule="evenodd" clip-rule="evenodd" d="M367.592 174.156C367.385 174.156 367.179 174.156 366.973 174.167H366.961C363.183 174.408 359.932 177.224 359.291 181.119C358.535 185.651 361.603 189.923 366.137 190.677C370.671 191.423 374.941 188.353 375.697 183.82C376.121 181.187 375.273 178.644 373.591 176.824C373.441 179.285 372.628 182.228 369.48 182.079L370.259 177.351C370.579 175.439 368.908 174.293 367.592 174.156" fill="#E85355"/>
<path fill-rule="evenodd" clip-rule="evenodd" d="M426.967 182.777C427.163 182.835 427.357 182.904 427.551 182.972H427.564C431.124 184.277 433.436 187.896 432.944 191.823C432.371 196.368 428.215 199.597 423.659 199.024C419.101 198.452 415.873 194.295 416.445 189.739C416.777 187.093 418.323 184.896 420.453 183.624C419.892 186.029 419.835 189.087 422.891 189.843L423.499 185.079C423.739 183.155 425.663 182.537 426.967 182.777" fill="#E85355"/>
<path fill-rule="evenodd" clip-rule="evenodd" d="M403.244 137.369C387.753 135.125 373.236 145.956 370.992 161.448L367.271 187.071C365.015 202.563 375.857 217.08 391.348 219.324C406.84 221.579 421.345 210.737 423.6 195.247L427.321 169.633C429.567 154.143 418.736 139.625 403.244 137.369" fill="#F8A477"/>
<path fill-rule="evenodd" clip-rule="evenodd" d="M387.376 218.455C388.657 218.832 389.987 219.129 391.348 219.324C406.84 221.579 421.345 210.737 423.6 195.247L427.321 169.633C427.999 164.997 427.493 160.452 426.051 156.295C414.671 152.907 404.973 150.181 404.973 150.181C404.973 150.181 369.091 150.147 372.927 160.061L373.945 161.711C373.945 161.711 377.037 158.895 382.521 160.223C388.016 161.563 406.244 166.303 412.267 168.535C418.288 170.779 419.892 175.256 418.987 181.335C418.071 187.403 418.712 189.807 420.212 190.815C420.212 190.815 417.9 218.455 387.376 218.455" fill="#F48469"/>
<path fill-rule="evenodd" clip-rule="evenodd" d="M387.065 197.764C386.323 201.761 388.967 205.608 392.963 206.351C396.971 207.095 400.805 204.452 401.549 200.455H401.539C401.664 199.768 401.207 199.093 400.519 198.968L388.567 196.745C387.879 196.62 387.204 197.079 387.077 197.764H387.065Z" fill="white"/>
<path fill-rule="evenodd" clip-rule="evenodd" d="M388.715 203.901C389.78 205.139 391.245 206.032 392.963 206.351C394.371 206.615 395.756 206.455 396.992 205.973C396.717 204.383 395.299 202.963 393.352 202.528C391.497 202.115 389.688 202.7 388.715 203.901" fill="white"/>
<path fill-rule="evenodd" clip-rule="evenodd" d="M400.68 199.012L389.436 196.928C389.024 198.131 389.368 199.493 390.157 199.928C391.107 200.444 399.283 201.748 399.981 201.211C400.313 200.948 400.543 199.964 400.68 199.012" fill="white"/>
<path fill-rule="evenodd" clip-rule="evenodd" d="M411.201 194.869C409.164 194.536 407.24 195.921 406.897 197.959C406.564 199.997 407.95 201.921 409.988 202.264C412.026 202.596 413.949 201.211 414.281 199.173C414.625 197.135 413.24 195.212 411.201 194.869" fill="#E85355"/>
<path fill-rule="evenodd" clip-rule="evenodd" d="M379.429 189.636C377.392 189.303 375.468 190.689 375.125 192.728C374.793 194.765 376.166 196.688 378.216 197.032C380.254 197.364 382.177 195.979 382.509 193.941C382.853 191.903 381.468 189.98 379.429 189.636" fill="#E85355"/>
<path fill-rule="evenodd" clip-rule="evenodd" d="M379.785 176.287C379.247 176.457 378.675 176.172 378.503 175.645C378.331 175.119 378.617 174.545 379.144 174.373C381.995 173.388 385.555 173.744 387.936 175.679C388.36 176.035 388.429 176.676 388.073 177.099C387.731 177.535 387.089 177.603 386.653 177.247C384.731 175.679 382.063 175.576 379.785 176.287V176.287ZM415.747 181.505C413.755 180.177 411.156 179.513 408.877 180.477C408.363 180.693 407.767 180.441 407.549 179.927C407.332 179.423 407.584 178.828 408.099 178.611C410.916 177.431 414.441 178.095 416.892 179.847C417.351 180.167 417.464 180.796 417.144 181.256C416.823 181.712 416.193 181.827 415.747 181.505V181.505ZM413.537 190.585C413.64 189.888 413.468 189.189 413.045 188.628C412.621 188.067 412.003 187.701 411.317 187.597C410.617 187.495 409.92 187.679 409.359 188.091C408.797 188.513 408.431 189.132 408.328 189.831C408.248 190.38 407.733 190.769 407.183 190.689C406.623 190.609 406.244 190.093 406.324 189.532C406.496 188.308 407.149 187.208 408.145 186.464C409.141 185.731 410.377 185.411 411.601 185.593C412.827 185.767 413.927 186.419 414.671 187.415C415.415 188.412 415.724 189.648 415.541 190.872C415.46 191.433 414.945 191.812 414.396 191.731C413.847 191.651 413.457 191.136 413.537 190.585V190.585ZM384.524 186.373C384.616 185.675 384.445 184.976 384.021 184.415C383.608 183.853 382.991 183.488 382.292 183.384C381.595 183.283 380.895 183.464 380.335 183.876C379.773 184.3 379.407 184.919 379.303 185.617C379.224 186.167 378.708 186.544 378.159 186.464C377.609 186.385 377.22 185.869 377.3 185.319C377.484 184.095 378.136 182.995 379.12 182.251C380.116 181.519 381.352 181.197 382.577 181.381C383.815 181.552 384.903 182.205 385.647 183.201C386.391 184.199 386.7 185.433 386.528 186.659C386.448 187.208 385.933 187.597 385.372 187.519C384.823 187.437 384.445 186.923 384.524 186.373" fill="#2C2757"/>
<path fill-rule="evenodd" clip-rule="evenodd" d="M367.957 182.331C367.957 182.331 372.411 181.232 373.464 174.031C374.507 166.817 374.243 168.592 374.793 164.837C375.343 161.08 378.903 154.876 386.528 155.987C394.153 157.096 400.256 157.979 400.256 157.979C400.256 157.979 406.359 158.86 413.984 159.971C421.597 161.08 423.257 168.043 422.708 171.797C422.171 175.553 422.421 173.779 421.38 180.991C420.327 188.193 424.288 190.517 424.288 190.517C425.124 184.804 427.184 182.813 427.184 182.813C427.184 182.813 428.295 175.164 429.269 168.477C430.24 161.803 429.671 152.552 421.793 145.109C413.915 137.679 403.404 136.26 403.404 136.26C403.404 136.26 392.94 134.633 383.265 139.521C373.601 144.399 370.419 153.112 369.445 159.799C368.472 166.473 367.361 174.121 367.361 174.121C367.361 174.121 368.781 176.617 367.957 182.331" fill="#2C2757"/>
<path fill-rule="evenodd" clip-rule="evenodd" d="M386.528 155.987C386.528 155.987 399.34 169.977 418.644 161.768C418.644 161.768 426.9 156.903 429.464 160.623C429.464 160.623 435.223 145.567 422.273 141.675C422.273 141.675 425.249 140.185 425.077 138.251C424.917 136.304 420.636 130.512 407.287 133.42C407.287 133.42 407.733 128.621 403.451 127.236C399.18 125.851 384.903 130.695 381.503 140.496C381.503 140.496 378.732 147.697 386.528 155.987" fill="#3D3172"/>
<path fill-rule="evenodd" clip-rule="evenodd" d="M430.597 151.155C430.507 150.455 430.357 149.759 430.149 149.071C426.417 151.029 418.415 153.708 405.981 150.468C394.989 147.616 394.096 136.556 395.059 128.404C391.12 129.871 386.825 132.457 383.987 136.052C384.009 140.048 386.059 145.852 395.104 151.967C407.916 160.612 424.117 154.327 430.597 151.155Z" fill="#48456D"/>
<path fill-rule="evenodd" clip-rule="evenodd" d="M264.845 117.299L264.891 119.485C264.891 119.485 265.967 119.864 266.757 121.639C267.559 123.412 267.925 124.719 267.925 124.719L279.351 120.572L279.397 119.68L278.492 116.955C278.492 116.955 278.24 116.473 278.504 116.143L272.711 113.589L264.845 117.299" fill="#F8A477"/>
<path fill-rule="evenodd" clip-rule="evenodd" d="M371.644 220.549C371.644 220.549 316.973 191.972 308.307 182.261C299.627 172.565 295.585 158.975 282.361 120.139C282.361 120.139 281.881 118.329 279.076 118.523C276.26 118.707 268.383 121.488 267.307 122.817C266.219 124.145 265.624 125.497 266.012 127.328C266.401 129.16 281.996 189.636 286.416 198.68C290.845 207.725 330.861 244.935 339.185 253.615C347.509 262.292 371.644 220.549 371.644 220.549" fill="#3D3172"/>
<path fill-rule="evenodd" clip-rule="evenodd" d="M276.775 118.936C273.284 119.793 268.165 121.764 267.307 122.817C266.219 124.145 265.624 125.497 266.012 127.328C266.401 129.16 281.996 189.636 286.416 198.68C290.845 207.725 330.861 244.935 339.185 253.615C341.784 256.328 345.929 254.107 350.405 249.779C350.772 247.5 350.876 246.069 350.612 245.828C348.688 244.053 346.135 241.981 332.064 230.259C317.992 218.533 296.135 198.383 292.517 190.929C288.888 183.464 277.691 144.021 274.072 132.195C270.581 120.813 276.328 119.051 276.775 118.936" fill="#2C2757"/>
<path fill-rule="evenodd" clip-rule="evenodd" d="M281.48 104.28C282.271 99.9986 284.628 96.9999 285.603 95.9919C286.873 94.6519 280.771 90.9412 278.389 97.3759C278.389 97.3759 276.237 99.8039 275 99.0946C273.775 98.3839 271.817 79.5612 271.6 77.5106C271.393 75.4506 269.001 75.3012 268.36 75.8866C267.729 76.4706 268.073 79.4479 268.256 83.2359C268.44 87.0386 268.599 91.3199 268.268 91.6972C267.947 92.0759 267.077 92.0759 266.173 90.0372C265.257 87.9879 260.665 76.5386 259.647 75.9772C258.628 75.4052 256.749 76.4586 256.921 78.3812C257.104 80.3052 262.177 91.6866 262.36 93.3466C262.543 95.0172 260.895 94.9372 260.151 94.0332C259.405 93.1279 252.171 81.5652 251.232 81.0052C250.293 80.4426 248.415 81.5772 249.113 83.5226C249.811 85.4706 256.28 96.8266 256.235 97.7892C256.2 98.7399 254.94 99.4719 252.833 97.9826C250.716 96.4959 246.697 92.9119 245.908 92.8759C245.128 92.8426 244.111 95.2479 245.987 97.1599C247.865 99.0719 252.353 103.972 252.925 104.784C255.948 109.056 257.505 113.772 260.333 116.784C261.352 117.871 262.68 118.696 264.169 119.245C267.708 120.551 272.137 120.333 275.539 118.501C281.435 115.307 280.381 110.177 281.48 104.28" fill="#F8A477"/>
<path fill-rule="evenodd" clip-rule="evenodd" d="M372.663 360.415L369.044 363.507H338.876C338.876 363.507 340.044 359.772 342.024 358.605C342.024 358.605 342.815 358.228 343.811 358.228C343.811 358.228 344.737 357.001 346.147 356.42C347.567 355.835 354.596 354.128 358.271 353.488C361.959 352.847 365.519 354.128 367.283 354.128C369.044 354.128 371.759 353.751 371.759 353.751L372.663 360.415" fill="#F8A477"/>
<path fill-rule="evenodd" clip-rule="evenodd" d="M445.688 238.741C445.688 238.741 451.24 242.656 453.897 254.484C456.564 266.324 463.285 326.444 464.556 336.887C465.837 347.34 465.415 363.507 442.392 363.507C419.365 363.507 390.157 363.507 380.987 363.507C371.816 363.507 369.044 363.507 369.044 363.507C369.044 363.507 369.044 355.619 369.044 352.777C369.044 349.939 370.853 348.988 372.72 348.988C374.587 348.988 430.611 342.907 433.275 342.165C435.931 341.42 437.215 339.931 437.319 336.725C437.433 333.529 428.261 296.54 426.337 282.685C424.425 268.832 432.519 238.341 445.688 238.741Z" fill="#3D3172"/>
<path fill-rule="evenodd" clip-rule="evenodd" d="M464.957 342.027C465.176 351.92 461.876 363.507 442.392 363.507C419.365 363.507 390.157 363.507 380.987 363.507C371.816 363.507 369.044 363.507 369.044 363.507V355.079C370.843 357.324 374.449 359.887 381.513 359.887C394.096 359.887 430.027 359.887 439.297 359.887C448.136 359.887 464.636 353.488 464.957 342.027" fill="#2C2757"/>
<path fill-rule="evenodd" clip-rule="evenodd" d="M426.337 282.685C427.641 292.051 432.245 311.993 435.061 324.92C436.412 331.116 437.349 335.696 437.319 336.725C437.228 339.668 436.139 341.168 433.895 341.969C439.447 341.053 441.327 338.455 442.275 334.939C443.1 331.952 442.368 319.381 440.032 296.136C439.619 292.061 439.16 287.655 438.655 282.925C436.78 265.397 440.855 253.719 444.897 246.768C446.133 244.639 447.371 242.944 448.423 241.673C446.889 239.589 445.688 238.741 445.688 238.741C432.519 238.341 424.425 268.832 426.337 282.685" fill="#2C2757"/>
<path fill-rule="evenodd" clip-rule="evenodd" d="M390.329 193.06C390.329 193.06 392.836 190.448 393.639 189.751C394.44 189.064 394.6 189.853 394.509 190.896C394.417 191.937 394.68 193.941 394.119 194.409C393.559 194.891 390.788 194.409 390.204 194.169C389.619 193.941 390.329 193.06 390.329 193.06" fill="#FBC4A8"/>
<path d="M212.235 253.888C212.556 253.557 213.083 253.557 213.415 253.888C213.735 254.211 213.735 254.737 213.415 255.068L210.759 257.713C210.437 258.035 209.911 258.035 209.591 257.713C209.259 257.38 209.259 256.855 209.591 256.535L212.235 253.888ZM215.269 259.556C215.737 259.556 216.105 259.935 216.105 260.393C216.105 260.851 215.737 261.228 215.269 261.228H211.525C211.068 261.228 210.7 260.851 210.7 260.393C210.7 259.935 211.068 259.556 211.525 259.556H215.269ZM213.415 265.728C213.735 266.051 213.735 266.576 213.415 266.897C213.083 267.228 212.556 267.228 212.235 266.897L209.591 264.251C209.259 263.931 209.259 263.404 209.591 263.071C209.911 262.751 210.437 262.751 210.759 263.071L213.415 265.728ZM207.736 268.761C207.736 269.22 207.368 269.6 206.9 269.6C206.441 269.6 206.075 269.22 206.075 268.761V265.019C206.075 264.559 206.441 264.18 206.9 264.18C207.368 264.18 207.736 264.559 207.736 265.019V268.761ZM201.576 266.897C201.244 267.228 200.717 267.228 200.397 266.897C200.076 266.576 200.076 266.051 200.397 265.728L203.041 263.071C203.373 262.751 203.9 262.751 204.22 263.071C204.552 263.404 204.552 263.931 204.22 264.251L201.576 266.897ZM198.531 261.228C198.072 261.228 197.705 260.851 197.705 260.393C197.705 259.935 198.072 259.556 198.531 259.556H202.273C202.743 259.556 203.109 259.935 203.109 260.393C203.109 260.851 202.743 261.228 202.273 261.228H198.531ZM200.397 255.068C200.076 254.737 200.076 254.211 200.397 253.888C200.717 253.557 201.244 253.557 201.576 253.888L204.22 256.535C204.552 256.855 204.552 257.38 204.22 257.713C203.9 258.035 203.373 258.035 203.041 257.713L200.397 255.068ZM206.075 252.023C206.075 251.565 206.441 251.188 206.9 251.188C207.368 251.188 207.736 251.565 207.736 252.023V255.768C207.736 256.224 207.368 256.601 206.9 256.601C206.441 256.601 206.075 256.224 206.075 255.768V252.023Z" fill="#7E6ABC"/>
<path fill-rule="evenodd" clip-rule="evenodd" d="M43.3682 396.275H48.0739C48.9334 396.275 49.6433 396.983 49.6433 397.843V402.561C49.6433 403.417 48.9334 404.128 48.0739 404.128H43.3682C42.4984 404.128 41.8 403.417 41.8 402.561V397.843C41.8 396.983 42.4984 396.275 43.3682 396.275Z" fill="#E2D6EE"/>
<path fill-rule="evenodd" clip-rule="evenodd" d="M59.4546 396.275H64.1719C65.0306 396.275 65.7399 396.983 65.7399 397.843V402.561C65.7399 403.417 65.0306 404.128 64.1719 404.128H59.4546C58.5957 404.128 57.8864 403.417 57.8864 402.561V397.843C57.8864 396.983 58.5957 396.275 59.4546 396.275" fill="#E2D6EE"/>
<path fill-rule="evenodd" clip-rule="evenodd" d="M75.5413 396.275H80.2573C81.1173 396.275 81.8266 396.983 81.8266 397.843V402.561C81.8266 403.417 81.1173 404.128 80.2573 404.128H75.5413C74.6826 404.128 73.9719 403.417 73.9719 402.561V397.843C73.9719 396.983 74.6826 396.275 75.5413 396.275Z" fill="#E2D6EE"/>
<path fill-rule="evenodd" clip-rule="evenodd" d="M91.6386 396.275H96.3452C97.2146 396.275 97.9132 396.983 97.9132 397.843V402.561C97.9132 403.417 97.2146 404.128 96.3452 404.128H91.6386C90.7692 404.128 90.0706 403.417 90.0706 402.561V397.843C90.0706 396.983 90.7692 396.275 91.6386 396.275Z" fill="#E2D6EE"/>
<path d="M152.308 33.8C152.629 33.4773 153.168 33.4773 153.488 33.8C153.809 34.1186 153.809 34.6453 153.488 34.9786L150.844 37.6212C150.511 37.9439 149.984 37.9439 149.664 37.6212C149.332 37.3026 149.332 36.7759 149.664 36.4426L152.308 33.8ZM155.355 39.4772C155.812 39.4772 156.179 39.8439 156.179 40.3013C156.179 40.7599 155.812 41.1373 155.355 41.1373H151.611C151.141 41.1373 150.775 40.7599 150.775 40.3013C150.775 39.8439 151.141 39.4772 151.611 39.4772H155.355ZM153.488 45.6373C153.809 45.9573 153.809 46.4852 153.488 46.8159C153.168 47.1359 152.629 47.1359 152.308 46.8159L149.664 44.1599C149.332 43.8399 149.332 43.3132 149.664 42.9799C149.984 42.6612 150.511 42.6612 150.844 42.9799L153.488 45.6373ZM147.809 48.6719C147.809 49.1293 147.443 49.5066 146.985 49.5066C146.515 49.5066 146.149 49.1293 146.149 48.6719V44.9266C146.149 44.4692 146.515 44.1026 146.985 44.1026C147.443 44.1026 147.809 44.4692 147.809 44.9266V48.6719ZM141.649 46.8159C141.329 47.1359 140.803 47.1359 140.471 46.8159C140.151 46.4852 140.151 45.9573 140.471 45.6373L143.127 42.9799C143.447 42.6612 143.973 42.6612 144.295 42.9799C144.627 43.3132 144.627 43.8399 144.295 44.1599L141.649 46.8159ZM138.616 41.1373C138.147 41.1373 137.78 40.7599 137.78 40.3013C137.78 39.8439 138.147 39.4772 138.616 39.4772H142.36C142.817 39.4772 143.184 39.8439 143.184 40.3013C143.184 40.7599 142.817 41.1373 142.36 41.1373H138.616ZM140.471 34.9786C140.151 34.6453 140.151 34.1186 140.471 33.8C140.803 33.4773 141.329 33.4773 141.649 33.8L144.295 36.4426C144.627 36.7759 144.627 37.3026 144.295 37.6212C143.973 37.9439 143.447 37.9439 143.127 37.6212L140.471 34.9786ZM146.149 31.9319C146.149 31.4733 146.515 31.1079 146.985 31.1079C147.443 31.1079 147.809 31.4733 147.809 31.9319V35.6759C147.809 36.1346 147.443 36.5119 146.985 36.5119C146.515 36.5119 146.149 36.1346 146.149 35.6759V31.9319Z" fill="#7E6ABC"/>
<path fill-rule="evenodd" clip-rule="evenodd" d="M184.94 192.864H189.656C190.515 192.864 191.225 193.573 191.225 194.433V199.149C191.225 200.009 190.515 200.72 189.656 200.72H184.94C184.081 200.72 183.371 200.009 183.371 199.149V194.433C183.371 193.573 184.081 192.864 184.94 192.864Z" fill="#F5F1F9"/>
<path fill-rule="evenodd" clip-rule="evenodd" d="M201.037 192.864H205.743C206.613 192.864 207.312 193.573 207.312 194.433V199.149C207.312 200.009 206.613 200.72 205.743 200.72H201.037C200.167 200.72 199.469 200.009 199.469 199.149V194.433C199.469 193.573 200.167 192.864 201.037 192.864Z" fill="#F5F1F9"/>
<path fill-rule="evenodd" clip-rule="evenodd" d="M217.124 192.864H221.841C222.7 192.864 223.409 193.573 223.409 194.433V199.149C223.409 200.009 222.7 200.72 221.841 200.72H217.124C216.265 200.72 215.555 200.009 215.555 199.149V194.433C215.555 193.573 216.265 192.864 217.124 192.864Z" fill="#F5F1F9"/>
<path fill-rule="evenodd" clip-rule="evenodd" d="M233.221 192.864H237.928C238.787 192.864 239.495 193.573 239.495 194.433V199.149C239.495 200.009 238.787 200.72 237.928 200.72H233.221C232.351 200.72 231.653 200.009 231.653 199.149V194.433C231.653 193.573 232.351 192.864 233.221 192.864Z" fill="#F5F1F9"/>
<path fill-rule="evenodd" clip-rule="evenodd" d="M640.532 125.771V228.735H624.237C612.597 228.735 603.059 238.26 603.059 249.917C603.059 261.561 612.597 271.097 624.237 271.097H640.532V482.168H603.827H547.256V8.09469C574.412 21.2854 593.245 49.1627 593.245 81.2453C593.245 105.736 613.283 125.771 637.775 125.771H640.532" fill="#C1B6E1"/>
<path fill-rule="evenodd" clip-rule="evenodd" d="M555.395 12.6519V482.168H539.113V4.68259C544.863 6.73326 550.324 9.4226 555.395 12.6519" fill="#E3DEF2"/>
<path fill-rule="evenodd" clip-rule="evenodd" d="M575.512 30.7307V482.168H559.22V15.24C565.332 19.636 570.819 24.8574 575.512 30.7307" fill="#E3DEF2"/>
<path fill-rule="evenodd" clip-rule="evenodd" d="M595.628 95.5786V482.168H579.337V35.928C588.105 48.888 593.245 64.4946 593.245 81.2453C593.245 86.2493 594.081 91.068 595.628 95.5786" fill="#E3DEF2"/>
<path fill-rule="evenodd" clip-rule="evenodd" d="M615.743 119.897V230.533C608.293 233.819 603.059 241.284 603.059 249.917C603.059 258.549 608.293 266.013 615.743 269.3V482.168H603.827H599.452V103.845C603.403 110.497 609.024 116.039 615.743 119.897Z" fill="#E3DEF2"/>
<path fill-rule="evenodd" clip-rule="evenodd" d="M635.86 271.097V482.168H619.569V270.571C621.069 270.915 622.636 271.097 624.237 271.097H635.86ZM635.86 125.727V228.735H624.237C622.636 228.735 621.069 228.917 619.569 229.261V121.855C624.581 124.112 630.079 125.475 635.86 125.727Z" fill="#E3DEF2"/>
<path fill-rule="evenodd" clip-rule="evenodd" d="M417.533 444.475H422.251C423.109 444.475 423.819 445.173 423.819 446.043V450.748C423.819 451.619 423.109 452.319 422.251 452.319H417.533C416.675 452.319 415.964 451.619 415.964 450.748V446.043C415.964 445.173 416.675 444.475 417.533 444.475Z" fill="#F5F1F9"/>
<path fill-rule="evenodd" clip-rule="evenodd" d="M433.631 444.475H438.337C439.207 444.475 439.904 445.173 439.904 446.043V450.748C439.904 451.619 439.207 452.319 438.337 452.319H433.631C432.761 452.319 432.064 451.619 432.064 450.748V446.043C432.064 445.173 432.761 444.475 433.631 444.475Z" fill="#F5F1F9"/>
<path fill-rule="evenodd" clip-rule="evenodd" d="M449.717 444.475H454.436C455.293 444.475 456.004 445.173 456.004 446.043V450.748C456.004 451.619 455.293 452.319 454.436 452.319H449.717C448.857 452.319 448.146 451.619 448.146 450.748V446.043C448.146 445.173 448.857 444.475 449.717 444.475Z" fill="#F5F1F9"/>
<path fill-rule="evenodd" clip-rule="evenodd" d="M465.813 444.475H470.521C471.392 444.475 472.089 445.173 472.089 446.043V450.748C472.089 451.619 471.392 452.319 470.521 452.319H465.813C464.947 452.319 464.245 451.619 464.245 450.748V446.043C464.245 445.173 464.947 444.475 465.813 444.475Z" fill="#F5F1F9"/>
<path fill-rule="evenodd" clip-rule="evenodd" d="M444.529 17.2558H449.248C450.105 17.2558 450.816 17.9518 450.816 18.8225V23.5278C450.816 24.3985 450.105 25.0972 449.248 25.0972H444.529C443.673 25.0972 442.961 24.3985 442.961 23.5278V18.8225C442.961 17.9518 443.673 17.2558 444.529 17.2558Z" fill="#F5F1F9"/>
<path fill-rule="evenodd" clip-rule="evenodd" d="M460.628 17.2558H465.332C466.193 17.2558 466.903 17.9518 466.903 18.8225V23.5278C466.903 24.3985 466.193 25.0972 465.332 25.0972H460.628C459.759 25.0972 459.061 24.3985 459.061 23.5278V18.8225C459.061 17.9518 459.759 17.2558 460.628 17.2558Z" fill="#F5F1F9"/>
<path fill-rule="evenodd" clip-rule="evenodd" d="M476.717 17.2558H481.42C482.291 17.2558 483.001 17.9518 483.001 18.8225V23.5278C483.001 24.3985 482.291 25.0972 481.42 25.0972H476.717C475.857 25.0972 475.146 24.3985 475.146 23.5278V18.8225C475.146 17.9518 475.857 17.2558 476.717 17.2558Z" fill="#F5F1F9"/>
<path fill-rule="evenodd" clip-rule="evenodd" d="M492.8 17.2558H497.519C498.376 17.2558 499.087 17.9518 499.087 18.8225V23.5278C499.087 24.3985 498.376 25.0972 497.519 25.0972H492.8C491.944 25.0972 491.233 24.3985 491.233 23.5278V18.8225C491.233 17.9518 491.944 17.2558 492.8 17.2558Z" fill="#F5F1F9"/>
<path fill-rule="evenodd" clip-rule="evenodd" d="M670.439 307.553H675.144C676.004 307.553 676.712 308.251 676.712 309.121V313.827C676.712 314.685 676.004 315.397 675.144 315.397H670.439C669.569 315.397 668.871 314.685 668.871 313.827V309.121C668.871 308.251 669.569 307.553 670.439 307.553Z" fill="#F5F1F9"/>
<path fill-rule="evenodd" clip-rule="evenodd" d="M686.524 307.553H691.24C692.1 307.553 692.811 308.251 692.811 309.121V313.827C692.811 314.685 692.1 315.397 691.24 315.397H686.524C685.665 315.397 684.957 314.685 684.957 313.827V309.121C684.957 308.251 685.665 307.553 686.524 307.553Z" fill="#F5F1F9"/>
<path fill-rule="evenodd" clip-rule="evenodd" d="M702.613 307.553H707.329C708.185 307.553 708.897 308.251 708.897 309.121V313.827C708.897 314.685 708.185 315.397 707.329 315.397H702.613C701.75 315.397 701.042 314.685 701.042 313.827V309.121C701.042 308.251 701.75 307.553 702.613 307.553Z" fill="#F5F1F9"/>
<path fill-rule="evenodd" clip-rule="evenodd" d="M718.709 307.553H723.415C724.283 307.553 724.983 308.251 724.983 309.121V313.827C724.983 314.685 724.283 315.397 723.415 315.397H718.709C717.849 315.397 717.139 314.685 717.139 313.827V309.121C717.139 308.251 717.849 307.553 718.709 307.553Z" fill="#F5F1F9"/>
<path fill-rule="evenodd" clip-rule="evenodd" d="M121.705 469.961C121.681 460.483 122.724 449.571 125.368 437.123C125.391 437.035 125.415 436.931 125.437 436.84C125.564 436.335 125.952 435.373 126.96 435.649C128.311 436.013 139.372 442.231 149.709 452.753C160.048 463.275 159.877 447.452 150.901 441.223C141.936 434.996 132.765 432.373 130.017 429.991C127.257 427.611 127.751 424.887 127.751 424.887C129.892 412.829 131.493 400.475 132.616 388.305L132.627 388.292C132.627 388.292 133.143 385.639 135.661 388.751C138.192 391.876 147.969 402.709 155.584 403.417C163.197 404.139 156.225 392.071 145.473 386.152C134.723 380.232 133.407 378.975 133.509 377.532V377.519C134.196 367.936 134.597 358.559 134.745 349.628C134.745 349.628 135.18 348.024 136.6 349.183C138.009 350.349 148.713 362.579 154.416 361.285C160.117 359.98 154.576 349.559 145.485 345.909C136.395 342.256 134.815 341.157 134.803 339.805C134.711 313.368 132.376 292.073 128.861 283.016C125.208 273.581 148.416 294.923 169.872 329.753C171.715 332.925 171.589 334.745 170.4 338.592C169.117 342.715 167.708 352.009 171.075 349.847C174.441 347.693 174.899 339.519 175.173 339.371C175.379 339.245 175.528 339.371 175.585 339.439C179.1 345.668 182.477 352.228 185.615 359.04C188.844 366.688 184.527 371.909 178.516 379.373C172.288 387.113 173.411 395.335 180.028 391.876C186.645 388.431 189.725 372.344 190.275 371.909C190.779 371.519 191.145 372.103 191.203 372.22C195.576 383.485 199.069 395.267 201.185 407.231C201.632 413.185 196.777 418.119 191.683 426.168C186.555 434.285 190.492 439.176 194.545 438.064C198.587 436.941 201.323 427.061 202.205 426.42C203.019 425.824 203.271 426.327 203.304 426.42C203.763 438.016 202.675 449.628 199.548 460.961C196.8 470.912 193.916 479.418 190.951 486.668H138.409L121.705 469.961" fill="#3D3172"/>
<path fill-rule="evenodd" clip-rule="evenodd" d="M182.765 486.668C175.872 394.68 152.24 315.007 152.127 314.595C151.793 313.496 150.649 312.865 149.549 313.185C148.451 313.507 147.82 314.663 148.141 315.761C148.256 316.163 171.761 395.368 178.653 486.668H182.765" fill="#2C2757"/>
<path fill-rule="evenodd" clip-rule="evenodd" d="M226.099 360.173C265.943 336.576 276.947 385.683 268.875 407.931C262.887 424.395 241.66 460.469 226.708 486.668H171.121C178.333 431.619 196.777 377.543 226.099 360.173Z" fill="#ACA2D8"/>
<path fill-rule="evenodd" clip-rule="evenodd" d="M195.324 486.668C215.601 422.311 246.652 369.068 246.812 368.785C247.269 367.993 248.427 367.592 249.376 367.901C250.339 368.212 250.739 369.105 250.281 369.907C250.12 370.18 219.345 422.941 199.16 486.668H195.324" fill="#E0DAF0"/>
<path fill-rule="evenodd" clip-rule="evenodd" d="M55.3678 332.019C67.6533 285.581 110.953 311.011 129.548 350.704C140.047 373.111 158.228 432.225 178.688 486.668H126.732L111.287 477.999C75.3467 410.792 50.4563 350.565 55.3678 332.019Z" fill="#F5F1F9"/>
<path fill-rule="evenodd" clip-rule="evenodd" d="M139.383 475.504C99.8826 400.579 79.2853 327.829 79.1813 327.464C78.884 326.433 79.48 325.368 80.4986 325.071C81.5293 324.772 82.6053 325.368 82.8919 326.387C83.0066 326.788 105.641 406.693 148.817 484.925L139.383 475.504" fill="white"/>
<path fill-rule="evenodd" clip-rule="evenodd" d="M741.081 339.863H790.496V354.837H741.081V339.863Z" fill="#C1B6E1"/>
<path fill-rule="evenodd" clip-rule="evenodd" d="M719.461 357.84H768.892V372.813H719.461V357.84" fill="#C1B6E1"/>
<path fill-rule="evenodd" clip-rule="evenodd" d="M771.237 357.84H802.507C803.389 362.715 803.939 367.72 804.121 372.813H771.237V357.84Z" fill="#C1B6E1"/>
<path fill-rule="evenodd" clip-rule="evenodd" d="M741.081 375.8H790.496V390.78H741.081V375.8Z" fill="#C1B6E1"/>
<path fill-rule="evenodd" clip-rule="evenodd" d="M792.854 375.8H804.179C804.191 376.076 804.19 376.352 804.19 376.625C804.19 381.425 803.868 386.152 803.237 390.78H792.854V375.8" fill="#C1B6E1"/>
<path fill-rule="evenodd" clip-rule="evenodd" d="M771.237 393.777H802.78C801.933 398.897 800.72 403.899 799.163 408.753H771.237V393.777Z" fill="#C1B6E1"/>
<path d="M694.537 411.524C694.86 411.204 695.387 411.204 695.707 411.524C696.037 411.855 696.037 412.384 695.707 412.704L693.061 415.36C692.74 415.68 692.215 415.68 691.884 415.36C691.561 415.027 691.561 414.501 691.884 414.18L694.537 411.524ZM697.573 417.204C698.032 417.204 698.407 417.581 698.407 418.04C698.407 418.496 698.032 418.876 697.573 418.876H693.827C693.371 418.876 692.993 418.496 692.993 418.04C692.993 417.581 693.371 417.204 693.827 417.204H697.573ZM695.707 423.363C696.037 423.696 696.037 424.223 695.707 424.543C695.387 424.873 694.86 424.873 694.537 424.543L691.884 421.897C691.561 421.565 691.561 421.037 691.884 420.717C692.215 420.397 692.74 420.397 693.061 420.717L695.707 423.363ZM690.04 426.409C690.04 426.865 689.66 427.243 689.204 427.243C688.745 427.243 688.368 426.865 688.368 426.409V422.663C688.368 422.207 688.745 421.829 689.204 421.829C689.66 421.829 690.04 422.207 690.04 422.663V426.409ZM683.879 424.543C683.548 424.873 683.019 424.873 682.699 424.543C682.368 424.223 682.368 423.696 682.699 423.363L685.345 420.717C685.665 420.397 686.193 420.397 686.524 420.717C686.845 421.037 686.845 421.565 686.524 421.897L683.879 424.543ZM680.835 418.876C680.376 418.876 679.999 418.496 679.999 418.04C679.999 417.581 680.376 417.204 680.835 417.204H684.576C685.035 417.204 685.412 417.581 685.412 418.04C685.412 418.496 685.035 418.876 684.576 418.876H680.835ZM682.699 412.704C682.368 412.384 682.368 411.855 682.699 411.524C683.019 411.204 683.548 411.204 683.879 411.524L686.524 414.18C686.845 414.501 686.845 415.027 686.524 415.36C686.193 415.68 685.665 415.68 685.345 415.36L682.699 412.704ZM688.368 409.671C688.368 409.212 688.745 408.835 689.204 408.835C689.66 408.835 690.04 409.212 690.04 409.671V413.412C690.04 413.871 689.66 414.248 689.204 414.248C688.745 414.248 688.368 413.871 688.368 413.412V409.671Z" fill="#7E6ABC"/>
<path fill-rule="evenodd" clip-rule="evenodd" d="M777.515 333.404C789.007 370.717 793.3 390.996 799.472 407.769C802.54 397.909 804.191 387.456 804.191 376.625V323.089C804.191 225.759 763.337 287.425 777.515 333.404" fill="#2C2757"/>
<path fill-rule="evenodd" clip-rule="evenodd" d="M635.059 475.378C626.095 463.423 616.947 447.633 611.485 428.308C601.969 394.693 641.024 431.939 671.835 475.378H635.059Z" fill="#3D3172"/>
<path fill-rule="evenodd" clip-rule="evenodd" d="M688.756 475.378C679.138 459.119 669.592 437.72 668.089 415.199C664.93 367.811 664.024 352.915 654.993 345.243C647.253 338.66 740.61 340.068 779.756 443.972C768.144 457.917 753.021 468.852 735.78 475.378H688.756Z" fill="#3D3172"/>
<path fill-rule="evenodd" clip-rule="evenodd" d="M668.376 343.594C703.72 375.745 731.519 423.282 751.9 467.649C750.928 468.223 749.941 468.782 748.957 469.318C728.073 423.764 699.348 374.852 662.685 343.045C664.371 343.125 666.283 343.308 668.376 343.594" fill="#5D4698"/>
<path fill-rule="evenodd" clip-rule="evenodd" d="M768.649 291.535C776.449 310.735 787.941 353.795 801.532 400.144C795.993 424.28 782.092 445.335 763.097 460.059C730.17 413.045 701.498 359.636 690.782 317.285C669.225 232.056 736.294 211.744 768.649 291.535Z" fill="#C1B6E1"/>
<path fill-rule="evenodd" clip-rule="evenodd" d="M782.069 441.084C736.477 361.363 715.24 267.824 715.147 267.423C714.931 266.507 715.504 265.589 716.42 265.384C717.335 265.168 718.251 265.737 718.467 266.655C718.561 267.056 739.501 359.269 784.267 438.155C783.545 439.139 782.811 440.125 782.069 441.084" fill="#9381C8"/>
<path fill-rule="evenodd" clip-rule="evenodd" d="M738.024 474.496C736.34 466.756 733.72 458.397 729.709 449.969C714.516 418.073 676.529 405.663 665.723 410.516C656.892 414.491 639.113 439.084 652.384 475.378H735.78C736.534 475.092 737.28 474.805 738.024 474.496" fill="#9381C8"/>
<path fill-rule="evenodd" clip-rule="evenodd" d="M716.007 475.378C717.941 470.168 721.939 458.72 722.461 451.803C722.509 451.264 722.108 450.795 721.571 450.761C721.043 450.715 720.573 451.116 720.529 451.655C720.051 458.1 716.384 468.748 714.415 474.118C709.972 465.384 704.556 456.223 697.975 446.959C701.441 433.576 701.043 423.671 701.043 423.636C701.019 423.1 700.573 422.688 700.035 422.699C699.496 422.723 699.084 423.168 699.097 423.707C699.108 423.74 699.461 432.625 696.499 444.909C689.019 434.652 680.103 424.289 669.441 414.283C668.663 413.551 667.428 413.587 666.693 414.376C665.961 415.155 666.009 416.379 666.785 417.111C671.983 421.988 676.745 426.947 681.131 431.939C677.193 431.217 671.181 430.459 665.217 431.059C664.691 431.113 664.3 431.581 664.345 432.121C664.404 432.649 664.873 433.037 665.409 432.98C672.589 432.269 679.86 433.587 683.204 434.332C689.947 442.22 695.74 450.155 700.709 457.941C693.772 457.275 676.736 456.155 660.201 459.188C659.676 459.289 659.332 459.795 659.423 460.321C659.527 460.847 660.029 461.19 660.559 461.1C678.223 457.847 696.519 459.428 702.027 460.035C705.277 465.245 708.163 470.387 710.715 475.378H716.007" fill="#B09FD6"/>
<path fill-rule="evenodd" clip-rule="evenodd" d="M647.797 69.028H653.155C654.139 69.028 654.941 69.8293 654.941 70.8147V76.1613C654.941 77.1466 654.139 77.948 653.155 77.948H647.797C646.811 77.948 646.012 77.1466 646.012 76.1613V70.8147C646.012 69.8293 646.811 69.028 647.797 69.028Z" fill="#E2D6EE"/>
<path fill-rule="evenodd" clip-rule="evenodd" d="M666.092 69.028H671.439C672.423 69.028 673.225 69.8293 673.225 70.8147V76.1613C673.225 77.1466 672.423 77.948 671.439 77.948H666.092C665.105 77.948 664.305 77.1466 664.305 76.1613V70.8147C664.305 69.8293 665.105 69.028 666.092 69.028Z" fill="#E2D6EE"/>
<path fill-rule="evenodd" clip-rule="evenodd" d="M684.376 69.028H689.736C690.72 69.028 691.518 69.8293 691.518 70.8147V76.1613C691.518 77.1466 690.72 77.948 689.736 77.948H684.376C683.403 77.948 682.603 77.1466 682.603 76.1613V70.8147C682.603 69.8293 683.403 69.028 684.376 69.028Z" fill="#E2D6EE"/>
<path fill-rule="evenodd" clip-rule="evenodd" d="M702.673 69.028H708.032C709.007 69.028 709.805 69.8293 709.805 70.8147V76.1613C709.805 77.1466 709.007 77.948 708.032 77.948H702.673C701.688 77.948 700.887 77.1466 700.887 76.1613V70.8147C700.887 69.8293 701.688 69.028 702.673 69.028Z" fill="#E2D6EE"/>
<path d="M791.704 62.3999C792.069 62.0213 792.678 62.0213 793.042 62.3999C793.406 62.7666 793.406 63.3613 793.042 63.7386L790.029 66.7506C789.665 67.1159 789.058 67.1159 788.69 66.7506C788.326 66.3719 788.326 65.7773 788.69 65.4106L791.704 62.3999ZM795.16 68.8453C795.688 68.8453 796.11 69.2679 796.11 69.7946C796.11 70.3106 795.688 70.7346 795.16 70.7346H790.903C790.387 70.7346 789.961 70.3106 789.961 69.7946C789.961 69.2679 790.387 68.8453 790.903 68.8453H795.16ZM793.042 75.8533C793.406 76.2173 793.406 76.8252 793.042 77.1919C792.678 77.5586 792.069 77.5586 791.704 77.1919L788.69 74.1813C788.326 73.8146 788.326 73.2066 788.69 72.8413C789.058 72.4746 789.665 72.4746 790.029 72.8413L793.042 75.8533ZM786.597 79.3106C786.597 79.8239 786.17 80.2493 785.644 80.2493C785.118 80.2493 784.696 79.8239 784.696 79.3106V75.0493C784.696 74.5239 785.118 74.0999 785.644 74.0999C786.17 74.0999 786.597 74.5239 786.597 75.0493V79.3106ZM779.589 77.1919C779.222 77.5586 778.616 77.5586 778.25 77.1919C777.884 76.8252 777.884 76.2173 778.25 75.8533L781.261 72.8413C781.626 72.4746 782.223 72.4746 782.6 72.8413C782.967 73.2066 782.967 73.8146 782.6 74.1813L779.589 77.1919ZM776.131 70.7346C775.605 70.7346 775.181 70.3106 775.181 69.7946C775.181 69.2679 775.605 68.8453 776.131 68.8453H780.392C780.906 68.8453 781.329 69.2679 781.329 69.7946C781.329 70.3106 780.906 70.7346 780.392 70.7346H776.131ZM778.25 63.7386C777.884 63.3613 777.884 62.7666 778.25 62.3999C778.616 62.0213 779.222 62.0213 779.589 62.3999L782.6 65.4106C782.967 65.7773 782.967 66.3719 782.6 66.7506C782.223 67.1159 781.626 67.1159 781.261 66.7506L778.25 63.7386ZM784.696 60.2813C784.696 59.7546 785.118 59.3306 785.644 59.3306C786.17 59.3306 786.597 59.7546 786.597 60.2813V64.5399C786.597 65.0546 786.17 65.4799 785.644 65.4799C785.118 65.4799 784.696 65.0546 784.696 64.5399V60.2813Z" fill="#CDBAE2"/>
<path d="M55.7453 230.589C56.112 230.223 56.7066 230.223 57.0844 230.589C57.4514 230.956 57.4514 231.563 57.0844 231.929L54.0733 234.94C53.7066 235.307 53.1005 235.307 52.7333 234.94C52.3677 234.563 52.3677 233.968 52.7333 233.601L55.7453 230.589ZM59.2026 237.036C59.7173 237.036 60.1413 237.46 60.1413 237.987C60.1413 238.512 59.7173 238.937 59.2026 238.937H54.9437C54.4172 238.937 53.9932 238.512 53.9932 237.987C53.9932 237.46 54.4172 237.036 54.9437 237.036H59.2026ZM57.0844 244.043C57.4514 244.409 57.4514 245.016 57.0844 245.383C56.7066 245.751 56.112 245.751 55.7453 245.383L52.7333 242.371C52.3677 242.004 52.3677 241.399 52.7333 241.032C53.1005 240.665 53.7066 240.665 54.0733 241.032L57.0844 244.043ZM50.6265 247.5C50.6265 248.027 50.2041 248.451 49.6885 248.451C49.162 248.451 48.738 248.027 48.738 247.5V243.241C48.738 242.727 49.162 242.291 49.6885 242.291C50.2041 242.291 50.6265 242.727 50.6265 243.241V247.5ZM43.6312 245.383C43.2536 245.751 42.6577 245.751 42.2921 245.383C41.9134 245.016 41.9134 244.409 42.2921 244.043L45.303 241.032C45.6697 240.665 46.2645 240.665 46.6317 241.032C47.0093 241.399 47.0093 242.004 46.6317 242.371L43.6312 245.383ZM40.1733 238.937C39.6468 238.937 39.2244 238.512 39.2244 237.987C39.2244 237.46 39.6468 237.036 40.1733 237.036H44.4333C44.9489 237.036 45.3713 237.46 45.3713 237.987C45.3713 238.512 44.9489 238.937 44.4333 238.937H40.1733ZM42.2921 231.929C41.9134 231.563 41.9134 230.956 42.2921 230.589C42.6577 230.223 43.2536 230.223 43.6312 230.589L46.6317 233.601C47.0093 233.968 47.0093 234.563 46.6317 234.94C46.2645 235.307 45.6697 235.307 45.303 234.94L42.2921 231.929ZM48.738 228.472C48.738 227.945 49.162 227.521 49.6885 227.521C50.2041 227.521 50.6265 227.945 50.6265 228.472V232.732C50.6265 233.247 50.2041 233.669 49.6885 233.669C49.162 233.669 48.738 233.247 48.738 232.732V228.472Z" fill="#CDBAE2"/>
<path fill-rule="evenodd" clip-rule="evenodd" d="M16.2457 524.43C12.3353 524.43 9.1224 521.232 9.1224 517.305V516.718C9.1224 512.792 12.3353 509.595 16.2457 509.595C20.1703 509.595 23.3708 512.792 23.3708 516.718V517.305C23.3708 521.232 20.1703 524.43 16.2457 524.43ZM10.6807 476.349H840.057C845.94 476.349 850.752 481.148 850.752 487.03C850.752 492.911 845.94 497.724 840.057 497.724H804.009C800.74 497.724 798.073 500.39 798.073 503.659C798.073 506.916 800.74 509.595 804.009 509.595H817.193C821.28 509.595 824.619 512.933 824.619 517.017C824.619 521.096 821.28 524.43 817.193 524.43H34.7353C30.6453 524.43 27.3099 521.096 27.3099 517.017C27.3099 512.933 30.6453 509.595 34.7353 509.595H45.114C48.3828 509.595 51.0505 506.916 51.0505 503.659C51.0505 500.39 48.3828 497.724 45.114 497.724H10.6807C4.80053 497.724 0 492.911 0 487.03C0 481.148 4.81506 476.349 10.6807 476.349" fill="#2C2757"/>
</svg>
